<?xml version='1.0' encoding='utf-8'?>
<svg xmlns="http://www.w3.org/2000/svg" viewBox="0 0 22 22"> <path d="m10.289 3-0.45378 0.39344 0.87731 1.2787-7.442 11.836h-1.2706v0.62295l18-0.03279v-0.62295l-1.2403 0.03279-7.4118-11.803 0.84706-1.2787-0.42353-0.39344-0.7563 1.1148-0.72605-1.1475zm0.7563 8 3.358 5.4098-6.8672 0.03279 3.5092-5.4426z" fill-rule="evenodd" stroke="#fff" stroke-width="1.8"/> <path d="m10.289 3-0.45378 0.39344 0.87731 1.2787-7.442 11.836h-1.2706v0.62295l18-0.03279v-0.62295l-1.2403 0.03278-7.4118-11.803 0.84706-1.2787-0.42353-0.39344-0.7563 1.1148-0.72605-1.1475zm0.7563 8 3.358 5.4098-6.8672 0.03279 3.5092-5.4426z" fill-rule="evenodd"/> </svg>